<svg xmlns="http://www.w3.org/2000/svg" viewBox="0 0 1536 1024">
  <path d="M 707.31,683.1 L 726.68,572.05 L 726.68,572.05 C 726.68,572.05 737.01,548.8 752.5,546.22 C 768,543.64 1204.46,501.02 1204.46,501.02 L 1204.46,501.02 C 1204.46,501.02 1285.81,501.02 1298.72,587.54 C 1311.64,674.06 1214.79,688.26 1214.79,688.26 L 749.92,730.88 C 749.92,730.88 755.09,730.88 749.92,730.88 C 744.76,730.88 715.06,719.25 711.18,706.34 C 707.31,693.43 707.31,683.1 707.31,683.1 Z" fill="#ff6a00" stroke="#1e293b" stroke-width="0"/>
  <path d="M415.875,334.625 C417.003,334.599 418.132,334.573 419.295,334.546 C429.049,334.525 438.008,336.311 445.375,343.125 C446.531,344.150 446.531,344.150 447.711,345.195 C454.396,353.386 456.848,363.510 459.594,373.527 C460.024,375.068 460.455,376.608 460.886,378.147 C462.035,382.256 463.171,386.367 464.304,390.480 C465.222,393.803 466.146,397.124 467.071,400.445 C469.977,410.885 472.859,421.332 475.734,431.780 C476.516,434.620 477.298,437.460 478.081,440.300 C481.726,453.532 485.365,466.765 489.000,480.000 C489.327,481.191 489.327,481.191 489.661,482.407 C499.256,517.348 508.728,552.323 518.136,587.315 C518.866,590.029 519.597,592.742 520.328,595.455 C521.482,599.740 522.633,604.026 523.783,608.312 C524.204,609.883 524.627,611.454 525.050,613.025 C527.206,621.020 529.301,629.029 531.254,637.076 C531.579,638.404 531.903,639.733 532.237,641.101 C533.738,648.772 534.655,657.325 531.313,664.625 C529.094,667.863 526.950,670.419 524.000,673.000 C523.424,673.508 522.847,674.016 522.253,674.540 C512.870,680.620 496.941,680.089 485.875,681.188 C485.021,681.274 484.167,681.360 483.287,681.449 C473.351,682.441 463.431,683.375 453.438,683.438 C452.637,683.447 451.837,683.457 451.013,683.468 C444.904,683.373 440.894,681.755 436.438,677.625 C429.404,667.164 426.987,654.017 424.039,641.938 C423.717,640.697 423.395,639.457 423.063,638.180 C422.647,636.505 422.647,636.505 422.223,634.796 C420.721,631.362 419.400,630.475 416.000,629.000 C407.736,628.671 401.039,633.307 394.000,637.188 C392.659,637.916 391.318,638.643 389.976,639.370 C379.777,644.922 369.726,650.723 359.730,656.633 C353.990,660.023 348.189,663.301 342.375,666.563 C334.688,670.878 327.074,675.301 319.500,679.813 C293.332,695.315 262.606,706.108 231.438,701.438 C224.857,699.744 219.661,696.117 215.500,690.813 C211.775,683.828 211.794,676.069 214.023,668.547 C215.578,664.647 217.255,660.817 219.000,657.000 C220.241,654.256 221.473,651.510 222.690,648.756 C223.508,646.908 224.341,645.066 225.191,643.232 C228.097,636.814 228.097,636.814 227.000,630.000 C220.153,625.435 210.366,628.826 202.777,630.223 C200.192,630.683 197.607,631.143 195.021,631.604 C190.970,632.333 186.919,633.066 182.869,633.803 C178.944,634.515 175.017,635.213 171.090,635.910 C169.882,636.134 168.675,636.358 167.431,636.589 C154.031,638.953 154.031,638.953 148.188,635.188 C144.826,631.826 144.029,629.339 143.625,624.625 C143.769,619.997 144.728,617.431 148.000,614.000 C155.612,609.991 163.348,608.439 171.750,606.813 C173.981,606.366 176.212,605.919 178.443,605.472 C182.626,604.638 186.813,603.820 191.000,603.000 C197.948,601.638 204.894,600.272 211.839,598.898 C214.751,598.325 217.665,597.760 220.579,597.197 C239.333,594.781 239.333,594.781 254.000,585.000 C256.813,579.281 257.629,575.210 256.000,569.000 C253.807,566.358 252.067,564.533 249.000,563.000 C235.191,562.654 221.501,565.930 208.031,568.550 C203.852,569.363 199.671,570.162 195.490,570.958 C185.112,572.935 174.738,574.931 164.365,576.933 C155.573,578.629 146.780,580.315 137.985,581.987 C133.885,582.770 129.788,583.568 125.691,584.366 C123.156,584.849 120.621,585.331 118.085,585.813 C116.964,586.036 115.843,586.258 114.687,586.488 C94.419,590.275 94.419,590.275 88.156,586.108 C84.802,582.829 84.310,579.575 84.000,575.000 C84.846,569.358 86.568,566.541 91.000,563.000 C94.593,561.650 98.273,560.902 102.027,560.133 C103.162,559.886 104.296,559.640 105.465,559.386 C109.305,558.563 113.151,557.777 117.000,557.000 C119.044,556.587 119.044,556.587 121.130,556.165 C131.096,554.168 141.077,552.250 151.062,550.351 C154.455,549.705 157.847,549.055 161.240,548.404 C178.822,545.035 196.414,541.721 214.023,538.496 C214.772,538.359 215.520,538.222 216.291,538.080 C224.034,536.661 231.779,535.250 239.528,533.857 C260.734,531.127 260.734,531.127 280.000,523.000 C283.755,517.113 284.894,512.954 284.000,506.000 C282.260,502.345 282.260,502.345 279.000,500.000 C272.016,498.682 266.122,499.327 259.188,500.625 C258.156,500.807 257.125,500.990 256.062,501.178 C252.706,501.774 249.353,502.387 246.000,503.000 C243.676,503.415 241.351,503.828 239.027,504.240 C234.307,505.078 229.588,505.921 224.870,506.769 C215.696,508.416 206.516,510.024 197.331,511.605 C194.739,512.054 192.148,512.510 189.557,512.967 C187.979,513.240 186.402,513.513 184.824,513.785 C183.474,514.021 182.124,514.257 180.733,514.500 C171.332,515.759 171.332,515.759 167.820,513.758 C162.091,508.240 162.091,508.240 161.688,502.750 C161.755,498.082 162.852,495.562 166.000,492.000 C170.279,488.744 173.791,487.298 179.051,486.281 C180.503,485.995 181.955,485.708 183.451,485.413 C185.071,485.108 186.692,484.804 188.313,484.500 C190.026,484.168 191.740,483.835 193.453,483.501 C205.124,481.243 216.817,479.106 228.508,476.953 C229.941,476.689 231.374,476.425 232.851,476.153 C240.038,474.831 247.226,473.515 254.417,472.213 C270.777,469.265 270.777,469.265 287.066,465.953 C288.294,465.692 289.522,465.430 290.787,465.161 C305.906,459.697 313.336,434.601 319.962,421.281 C321.794,417.600 323.632,413.922 325.471,410.244 C332.402,396.376 332.402,396.376 339.126,382.406 C339.860,380.851 339.860,380.851 340.609,379.265 C341.507,377.352 342.399,375.435 343.284,373.515 C350.706,357.679 361.239,346.126 377.457,338.906 C389.627,334.760 403.155,334.787 415.875,334.625 Z M358.000,468.000 C354.609,472.404 353.288,475.977 352.375,481.438 C352.156,482.694 351.937,483.951 351.711,485.246 C351.113,489.080 350.616,492.925 350.117,496.773 C348.984,505.364 347.606,513.906 346.199,522.455 C345.739,525.252 345.283,528.050 344.828,530.848 C343.329,540.036 341.799,549.218 340.207,558.391 C339.791,560.807 339.376,563.224 338.961,565.640 C338.574,567.870 338.176,570.099 337.778,572.327 C334.950,586.273 334.950,586.273 337.875,599.688 C340.067,602.073 340.933,602.879 344.102,603.238 C344.934,603.263 345.767,603.287 346.625,603.313 C347.442,603.350 348.260,603.387 349.102,603.426 C356.570,602.329 363.399,597.014 369.688,593.063 C371.559,591.896 373.430,590.729 375.301,589.563 C376.723,588.673 376.723,588.673 378.174,587.766 C382.568,585.020 386.971,582.290 391.375,579.563 C392.234,579.030 393.092,578.498 393.977,577.950 C400.504,573.910 407.061,569.919 413.625,565.938 C421.626,561.083 429.582,556.167 437.468,551.128 C440.919,548.925 444.374,546.759 447.926,544.723 C456.310,540.067 456.310,540.067 461.000,532.000 C461.711,527.098 461.772,523.525 459.504,519.043 C456.288,515.134 452.753,512.943 448.438,510.375 C446.715,509.319 444.992,508.263 443.270,507.207 C442.391,506.674 441.513,506.141 440.608,505.592 C436.581,503.134 432.606,500.595 428.625,498.063 C414.273,488.987 399.813,480.087 385.313,471.250 C383.814,470.337 383.814,470.337 382.286,469.405 C381.363,468.843 380.440,468.282 379.488,467.703 C378.259,466.955 378.259,466.955 377.005,466.192 C370.345,462.232 363.749,462.920 358.000,468.000 Z " fill="#FD7406" stroke="none" stroke-width="1"/>
  <path d="M675.688,359.688 C677.828,359.631 677.828,359.631 680.012,359.574 C685.364,360.146 688.263,362.263 692.000,366.000 C692.344,368.665 692.677,371.332 693.000,374.000 C693.990,375.980 693.990,375.980 695.000,378.000 C695.412,379.450 695.772,380.915 696.091,382.389 C696.283,383.267 696.475,384.146 696.673,385.051 C696.980,386.495 696.980,386.495 697.293,387.969 C697.627,389.516 697.627,389.516 697.968,391.094 C698.715,394.561 699.452,398.030 700.188,401.500 C700.443,402.699 700.699,403.898 700.963,405.134 C705.880,428.192 710.501,451.307 715.063,474.438 C715.226,475.264 715.389,476.091 715.557,476.942 C716.509,481.769 717.459,486.597 718.405,491.425 C718.829,493.590 719.254,495.753 719.680,497.917 C721.054,504.959 722.393,512.007 723.674,519.067 C723.919,520.413 724.165,521.760 724.418,523.147 C726.453,536.619 726.453,536.619 723.852,542.672 C719.678,547.919 713.629,548.717 707.313,549.688 C706.519,549.813 705.725,549.938 704.907,550.067 C690.614,552.205 690.614,552.205 684.000,550.000 C678.261,544.261 677.699,534.121 676.313,526.500 C675.975,524.694 675.975,524.694 675.631,522.852 C675.081,519.902 674.537,516.952 674.000,514.000 C667.989,514.648 661.979,515.305 655.970,515.971 C653.932,516.196 651.894,516.418 649.855,516.637 C629.788,517.253 629.788,517.253 613.129,525.266 C612.354,527.238 612.354,527.238 611.563,529.250 C611.264,529.956 610.965,530.662 610.657,531.389 C610.038,532.853 609.441,534.326 608.865,535.807 C607.508,539.249 605.938,542.585 604.375,545.938 C603.808,547.157 603.241,548.376 602.656,549.633 C597.085,560.959 597.085,560.959 592.676,563.160 C584.497,565.727 575.959,566.222 567.438,566.375 C566.664,566.401 565.890,566.427 565.093,566.454 C561.707,566.465 559.397,566.239 556.473,564.477 C554.240,560.723 554.498,558.331 555.000,554.000 C556.129,550.315 557.630,546.835 559.188,543.313 C559.637,542.266 560.087,541.219 560.551,540.140 C562.016,536.752 563.504,533.375 565.000,530.000 C565.476,528.921 565.953,527.841 566.443,526.729 C569.918,518.874 573.450,511.044 576.994,503.220 C578.864,499.093 580.730,494.964 582.598,490.836 C585.057,485.400 587.516,479.964 589.977,474.529 C594.627,464.256 599.265,453.979 603.875,443.688 C604.388,442.542 604.901,441.397 605.430,440.217 C608.033,434.402 610.632,428.585 613.227,422.766 C618.775,410.335 624.368,397.927 630.063,385.563 C630.599,384.389 631.135,383.216 631.688,382.008 C638.646,366.976 638.646,366.976 645.730,363.809 C649.744,362.379 653.795,361.630 658.000,361.000 C660.011,360.691 660.011,360.691 662.063,360.375 C666.594,359.945 671.138,359.789 675.688,359.688 Z M658.000,413.000 C657.304,414.416 656.670,415.862 656.059,417.316 C655.647,418.290 655.236,419.264 654.812,420.267 C654.358,421.355 653.905,422.442 653.438,423.563 C652.967,424.685 652.496,425.808 652.010,426.965 C650.648,430.222 649.291,433.482 647.938,436.743 C646.931,439.166 645.922,441.588 644.913,444.011 C643.072,448.434 641.237,452.861 639.408,457.289 C638.677,459.055 637.945,460.821 637.212,462.586 C636.174,465.085 635.143,467.587 634.113,470.090 C633.641,471.223 633.641,471.223 633.158,472.378 C631.922,475.402 631.000,477.700 631.000,481.000 C643.311,481.385 656.012,479.870 668.000,477.000 C669.521,475.707 669.521,475.707 669.152,471.517 C669.098,466.468 668.485,461.688 667.574,456.730 C667.352,455.466 667.352,455.466 667.125,454.176 C666.812,452.407 666.495,450.638 666.174,448.870 C665.691,446.206 665.220,443.540 664.752,440.873 C663.093,431.516 661.278,422.230 659.000,413.000 C658.670,413.000 658.340,413.000 658.000,413.000 Z " fill="#0E1829" stroke="none" stroke-width="1"/>
  <path d="M514.423,327.941 C527.794,339.761 540.639,352.425 551.000,367.000 C551.757,368.058 552.513,369.117 553.293,370.207 C555.000,373.000 555.000,373.000 554.812,375.812 C554.000,378.000 554.000,378.000 553.000,379.000 C550.180,379.293 548.564,379.367 546.154,377.798 C545.586,377.239 545.019,376.681 544.434,376.105 C543.789,375.485 543.145,374.865 542.482,374.225 C541.807,373.553 541.133,372.880 540.437,372.187 C539.003,370.802 537.568,369.416 536.133,368.031 C535.429,367.344 534.726,366.657 534.001,365.949 C525.475,357.644 516.626,350.005 507.000,343.000 C505.918,342.211 504.837,341.422 503.723,340.609 C458.961,309.392 402.076,295.582 347.987,304.520 C306.791,312.320 271.326,330.103 241.000,359.000 C240.221,359.726 239.443,360.451 238.641,361.199 C216.683,382.261 202.024,410.247 191.877,438.588 C190.923,441.211 189.940,443.820 188.930,446.422 C188.618,447.229 188.305,448.035 187.984,448.866 C185.521,454.208 181.262,456.807 176.000,459.000 C170.833,460.496 165.246,460.970 160.250,458.812 C156.251,455.591 154.253,453.011 153.000,448.000 C153.434,445.597 153.434,445.597 154.223,442.922 C154.654,441.440 154.654,441.440 155.095,439.929 C155.414,438.880 155.734,437.831 156.062,436.750 C156.550,435.125 156.550,435.125 157.048,433.468 C167.820,398.067 185.224,366.657 211.000,340.000 C211.516,339.453 212.032,338.906 212.564,338.342 C244.983,303.996 289.167,283.245 335.394,275.440 C337.571,275.073 339.741,274.669 341.910,274.258 C403.492,263.935 468.159,288.096 514.423,327.941 Z " fill="#FD990D" stroke="none" stroke-width="1"/>
  <path d="M1254.000,535.000 C1255.031,535.766 1255.031,535.766 1256.082,536.547 C1269.745,547.434 1278.633,565.931 1281.000,583.000 C1283.041,603.745 1278.250,623.812 1265.688,640.750 C1258.440,649.434 1250.865,656.415 1241.000,662.000 C1239.783,662.701 1238.566,663.403 1237.313,664.125 C1235.889,664.782 1234.449,665.402 1233.000,666.000 C1231.930,666.446 1230.860,666.892 1229.758,667.352 C1217.823,671.720 1206.558,671.705 1194.000,671.000 C1192.821,670.939 1191.641,670.879 1190.426,670.816 C1177.708,669.411 1165.144,661.615 1156.000,653.000 C1155.306,652.348 1154.613,651.695 1153.898,651.023 C1141.055,637.783 1134.572,618.966 1134.688,600.750 C1134.692,599.828 1134.697,598.907 1134.702,597.957 C1134.827,590.646 1135.724,583.976 1138.000,577.000 C1138.340,575.938 1138.681,574.876 1139.031,573.781 C1143.497,561.109 1150.536,550.481 1160.000,541.000 C1160.686,540.303 1161.372,539.605 1162.078,538.887 C1187.451,514.688 1226.675,513.660 1254.000,535.000 Z M1181.296,560.817 C1178.934,564.796 1178.736,568.934 1178.391,573.473 C1178.293,574.473 1178.195,575.473 1178.094,576.503 C1177.788,579.688 1177.518,582.874 1177.250,586.063 C1176.960,589.217 1176.663,592.370 1176.366,595.524 C1176.175,597.560 1175.988,599.596 1175.804,601.633 C1175.204,608.203 1174.426,614.717 1173.401,621.236 C1172.757,625.673 1172.558,629.516 1173.000,634.000 C1175.251,637.088 1175.251,637.088 1178.000,639.000 C1178.330,639.330 1178.660,639.660 1179.000,640.000 C1190.699,640.993 1203.494,629.696 1213.070,623.688 C1217.347,621.010 1221.659,618.398 1225.992,615.813 C1227.167,615.106 1228.342,614.400 1229.552,613.672 C1231.852,612.290 1234.157,610.918 1236.469,609.557 C1244.019,605.082 1244.019,605.082 1249.000,598.000 C1249.750,595.000 1249.750,595.000 1249.000,592.000 C1245.397,586.866 1241.234,584.053 1235.813,581.125 C1234.127,580.183 1232.443,579.238 1230.762,578.289 C1229.848,577.774 1228.935,577.258 1227.994,576.728 C1222.297,573.440 1216.717,569.962 1211.125,566.500 C1210.002,565.805 1208.879,565.111 1207.722,564.395 C1205.698,563.143 1203.675,561.890 1201.653,560.635 C1200.777,560.095 1199.902,559.556 1199.000,559.000 C1198.143,558.448 1197.285,557.895 1196.402,557.326 C1190.097,553.845 1185.611,555.440 1181.296,560.817 Z " fill="#FDFCFC" stroke="none" stroke-width="1"/>
  <path d="M1164.000,380.000 C1171.256,384.924 1174.868,390.471 1177.000,399.000 C1177.514,408.376 1176.632,417.390 1175.137,426.633 C1174.944,427.872 1174.751,429.111 1174.553,430.388 C1174.147,432.985 1173.736,435.582 1173.320,438.177 C1172.688,442.120 1172.074,446.066 1171.463,450.012 C1171.064,452.552 1170.663,455.093 1170.262,457.633 C1170.080,458.796 1169.899,459.958 1169.712,461.157 C1166.446,481.397 1166.446,481.397 1162.125,486.188 C1156.780,489.287 1151.449,489.235 1145.375,489.313 C1144.230,489.356 1144.230,489.356 1143.063,489.400 C1137.477,489.464 1137.477,489.464 1135.286,487.332 C1129.603,477.025 1135.771,457.734 1137.500,446.750 C1138.004,443.524 1138.506,440.297 1138.998,437.069 C1139.302,435.076 1139.613,433.083 1139.933,431.092 C1141.621,420.466 1141.621,420.466 1140.000,410.000 C1134.188,408.340 1130.323,409.296 1125.000,412.000 C1113.529,421.927 1113.258,442.123 1110.938,456.250 C1110.429,459.335 1109.918,462.419 1109.399,465.503 C1109.079,467.405 1108.764,469.308 1108.457,471.213 C1105.980,485.954 1105.980,485.954 1102.375,491.500 C1095.367,495.926 1084.996,496.175 1077.000,495.000 C1074.499,493.029 1073.180,491.796 1072.469,488.656 C1072.603,476.521 1074.963,464.617 1077.000,452.688 C1077.575,449.291 1078.147,445.895 1078.712,442.497 C1079.061,440.396 1079.417,438.295 1079.780,436.196 C1081.649,425.876 1081.649,425.876 1079.000,416.000 C1075.358,414.459 1072.920,413.847 1069.000,414.500 C1061.359,418.321 1058.618,422.063 1055.926,429.896 C1054.384,435.064 1053.439,440.295 1052.527,445.605 C1052.318,446.770 1052.109,447.934 1051.893,449.133 C1051.232,452.816 1050.584,456.502 1049.938,460.188 C1049.287,463.884 1048.634,467.580 1047.971,471.274 C1047.561,473.562 1047.157,475.852 1046.762,478.143 C1044.235,492.261 1044.235,492.261 1040.063,497.375 C1035.269,499.918 1030.351,500.436 1025.000,501.000 C1024.140,501.097 1023.280,501.193 1022.395,501.293 C1018.552,501.531 1016.263,501.155 1012.938,499.188 C1007.525,490.283 1012.130,476.412 1013.738,466.594 C1014.023,464.820 1014.307,463.046 1014.591,461.272 C1015.185,457.569 1015.785,453.868 1016.389,450.167 C1017.159,445.452 1017.916,440.735 1018.669,436.017 C1019.253,432.358 1019.844,428.700 1020.437,425.042 C1020.718,423.304 1020.998,421.566 1021.275,419.828 C1025.294,394.749 1025.294,394.749 1029.500,390.438 C1036.992,387.360 1044.949,386.381 1053.000,387.000 C1055.500,388.125 1055.500,388.125 1057.000,390.000 C1057.750,393.188 1057.750,393.188 1058.000,396.000 C1058.522,395.481 1059.044,394.961 1059.582,394.426 C1069.261,385.256 1078.962,381.600 1092.195,381.727 C1099.480,382.250 1103.871,384.601 1108.813,389.875 C1109.864,390.906 1110.916,391.938 1112.000,393.000 C1115.370,391.315 1116.925,390.257 1119.500,387.750 C1131.469,376.976 1149.148,372.806 1164.000,380.000 Z " fill="#121C2E" stroke="none" stroke-width="1"/>
  <path d="M373.000,464.000 C377.948,466.186 382.438,469.115 387.000,472.000 C388.797,473.116 390.596,474.230 392.395,475.344 C397.548,478.542 402.684,481.768 407.817,484.999 C411.966,487.607 416.123,490.202 420.281,492.795 C424.240,495.266 428.197,497.742 432.153,500.219 C434.040,501.399 435.927,502.579 437.815,503.758 C440.441,505.398 443.065,507.042 445.688,508.688 C446.459,509.169 447.231,509.650 448.027,510.145 C458.305,516.610 458.305,516.610 461.000,522.000 C461.336,524.332 461.336,524.332 461.375,526.813 C461.403,527.623 461.432,528.434 461.461,529.270 C460.583,534.470 458.766,537.652 454.621,540.816 C451.543,542.800 448.417,544.662 445.250,546.500 C442.883,547.913 440.518,549.327 438.152,550.742 C436.955,551.452 435.757,552.162 434.523,552.894 C429.234,556.056 424.025,559.339 418.813,562.625 C410.074,568.106 401.286,573.502 392.466,578.852 C384.136,583.907 375.846,589.024 367.566,594.160 C366.801,594.635 366.035,595.109 365.247,595.598 C363.738,596.540 362.234,597.489 360.734,598.445 C354.408,602.469 349.481,604.098 342.000,603.000 C339.176,600.810 337.585,599.170 336.000,596.000 C335.207,586.472 336.893,577.282 338.563,567.938 C338.833,566.378 339.102,564.818 339.371,563.259 C339.796,560.783 340.223,558.307 340.652,555.832 C342.225,546.762 343.703,537.677 345.175,528.590 C345.623,525.826 346.072,523.063 346.522,520.299 C347.786,512.535 349.042,504.771 350.262,497.000 C350.443,495.847 350.625,494.693 350.812,493.505 C351.131,491.471 351.447,489.438 351.758,487.404 C354.203,471.797 354.203,471.797 360.000,466.000 C364.662,463.669 367.947,462.983 373.000,464.000 Z " fill="#FEFDFC" stroke="none" stroke-width="1"/>
  <path d="M1001.000,400.000 C1007.872,406.656 1010.121,414.515 1010.438,423.875 C1010.189,433.894 1007.111,442.778 1000.000,450.000 C983.339,463.978 959.754,465.431 939.000,467.000 C940.399,471.482 941.744,474.553 945.000,478.000 C952.103,481.552 961.200,481.233 969.000,480.000 C973.241,478.549 976.893,476.296 980.641,473.848 C984.569,471.687 987.532,471.093 992.000,471.000 C996.479,475.187 998.824,479.236 999.438,485.375 C999.318,488.713 998.977,490.042 997.313,493.063 C988.428,500.941 978.307,505.643 967.000,509.000 C966.196,509.246 965.391,509.492 964.563,509.746 C950.744,513.225 934.398,512.372 921.973,505.270 C911.937,498.521 906.395,489.340 903.410,477.699 C900.380,457.758 906.011,436.746 917.000,420.000 C919.798,416.446 922.812,413.204 926.000,410.000 C926.665,409.300 927.330,408.600 928.016,407.879 C946.704,389.583 979.458,384.001 1001.000,400.000 Z M945.473,428.813 C942.191,433.687 940.000,438.084 940.000,444.000 C946.181,444.123 951.970,443.770 958.063,442.750 C958.813,442.640 959.564,442.531 960.338,442.418 C966.581,441.393 972.346,439.622 976.965,435.059 C978.937,431.136 978.810,427.250 978.000,423.000 C975.483,419.599 973.680,418.316 969.504,417.531 C959.461,416.961 951.689,421.053 945.473,428.813 Z " fill="#101B2C" stroke="none" stroke-width="1"/>
  <path d="M612.000,631.000 C613.980,631.990 613.980,631.990 616.000,633.000 C616.118,639.205 613.280,643.578 610.063,648.625 C609.570,649.413 609.077,650.200 608.569,651.012 C602.246,660.966 595.063,670.083 587.063,678.750 C585.249,680.728 583.530,682.752 581.813,684.813 C563.817,705.379 540.076,721.396 516.000,734.000 C515.320,734.362 514.640,734.723 513.940,735.096 C494.773,745.166 473.818,751.745 452.750,756.500 C451.220,756.846 451.220,756.846 449.658,757.200 C434.999,760.295 420.342,761.340 405.396,761.261 C403.000,761.250 400.606,761.261 398.211,761.273 C383.316,761.288 368.702,759.913 354.125,756.750 C353.115,756.533 352.106,756.316 351.065,756.093 C298.134,744.401 298.134,744.401 288.230,730.520 C287.000,728.000 287.000,728.000 286.938,724.938 C288.433,720.802 290.097,720.019 294.000,718.000 C302.819,714.047 310.223,712.461 319.504,715.758 C321.527,716.537 323.547,717.326 325.563,718.125 C386.771,741.242 451.755,736.354 511.000,710.000 C538.384,697.290 562.362,679.942 584.000,659.000 C584.587,658.435 585.175,657.869 585.780,657.287 C592.349,650.939 598.542,644.431 604.195,637.242 C606.611,634.241 608.290,632.237 612.000,631.000 Z " fill="#FD6A12" stroke="none" stroke-width="1"/>
  <path d="M1243.125,369.625 C1244.240,369.613 1245.355,369.602 1246.504,369.590 C1256.735,369.626 1265.566,371.535 1273.000,379.000 C1282.460,391.522 1281.856,404.884 1279.828,419.754 C1279.448,422.446 1279.056,425.137 1278.656,427.826 C1278.255,430.532 1277.868,433.239 1277.484,435.947 C1276.180,445.010 1274.708,454.035 1272.984,463.027 C1272.831,463.856 1272.678,464.686 1272.521,465.540 C1271.656,469.891 1270.689,473.434 1268.000,477.000 C1261.625,481.202 1253.370,480.882 1246.000,480.000 C1245.010,479.010 1244.020,478.020 1243.000,477.000 C1243.000,475.680 1243.000,474.360 1243.000,473.000 C1242.117,473.603 1241.234,474.207 1240.324,474.828 C1226.566,483.991 1214.924,488.709 1197.969,485.410 C1190.646,482.958 1185.477,477.517 1181.805,470.820 C1179.244,461.844 1179.345,448.561 1183.543,440.164 C1193.462,425.431 1206.763,417.982 1223.977,414.559 C1231.942,413.453 1239.969,413.234 1248.000,413.000 C1247.779,406.547 1247.779,406.547 1244.852,400.988 C1239.319,397.131 1233.436,397.966 1227.000,399.000 C1222.704,400.411 1218.601,402.206 1214.523,404.153 C1210.219,406.198 1206.887,407.782 1202.000,407.000 C1197.567,402.667 1195.055,398.908 1194.938,392.688 C1196.898,385.884 1200.608,382.434 1206.637,378.820 C1218.703,372.415 1229.421,369.481 1243.125,369.625 Z M1214.625,443.125 C1212.218,447.383 1212.116,451.225 1213.000,456.000 C1214.793,459.294 1214.793,459.294 1218.000,461.000 C1224.612,462.009 1230.287,460.275 1236.000,457.000 C1242.725,451.761 1244.723,445.210 1246.000,437.000 C1246.000,436.010 1246.000,435.020 1246.000,434.000 C1233.596,433.475 1224.134,434.617 1214.625,443.125 Z " fill="#101B2C" stroke="none" stroke-width="1"/>
  <path d="M1437.223,361.613 C1444.270,367.382 1448.446,373.704 1449.406,382.883 C1449.661,394.414 1447.701,403.030 1439.875,411.875 C1426.755,423.525 1406.794,425.935 1389.957,427.641 C1387.074,427.823 1387.074,427.823 1385.000,429.000 C1387.613,434.227 1389.552,437.652 1395.000,440.000 C1406.427,441.537 1415.251,438.512 1424.938,432.688 C1429.693,430.067 1429.693,430.067 1433.000,431.000 C1437.510,435.126 1439.768,438.637 1440.375,444.813 C1439.902,450.090 1438.882,451.422 1435.000,455.000 C1419.806,466.440 1402.757,470.396 1384.000,469.000 C1372.576,466.743 1363.638,460.535 1357.000,451.000 C1349.335,435.995 1350.624,417.997 1355.259,402.211 C1358.613,392.202 1363.904,382.817 1371.000,375.000 C1371.615,374.305 1372.230,373.610 1372.863,372.895 C1387.811,356.928 1418.133,347.758 1437.223,361.613 Z M1391.000,391.000 C1387.822,395.908 1385.662,400.068 1386.000,406.000 C1403.373,405.618 1403.373,405.618 1418.375,397.875 C1420.798,393.588 1420.552,390.903 1420.000,386.000 C1418.124,383.498 1416.761,382.381 1414.000,381.000 C1404.004,380.412 1397.732,383.577 1391.000,391.000 Z " fill="#111B2D" stroke="none" stroke-width="1"/>
  <path d="M1094.512,567.316 C1100.830,571.591 1106.047,577.554 1108.000,585.000 C1109.002,596.836 1107.684,605.728 1100.000,614.934 C1085.342,630.078 1061.814,631.281 1042.000,632.000 C1043.550,636.779 1044.984,640.906 1048.438,644.625 C1058.182,648.386 1068.660,645.928 1078.000,642.000 C1079.816,640.936 1081.610,639.833 1083.375,638.688 C1086.693,636.565 1087.800,636.010 1091.875,635.813 C1096.218,637.463 1097.966,639.931 1100.000,644.000 C1100.380,649.039 1100.171,652.010 1097.000,656.000 C1084.876,668.394 1067.001,673.036 1050.125,673.500 C1038.238,673.171 1029.421,669.500 1021.094,661.070 C1012.903,651.595 1011.275,640.548 1011.625,628.328 C1013.282,609.200 1021.616,591.068 1036.074,578.281 C1051.867,565.572 1075.068,557.608 1094.512,567.316 Z M1049.543,598.805 C1046.893,602.575 1044.000,607.302 1044.000,612.000 C1062.473,610.912 1062.473,610.912 1078.375,602.813 C1080.615,598.935 1080.629,596.402 1080.000,592.000 C1078.370,589.224 1078.370,589.224 1075.000,588.000 C1063.466,586.262 1056.756,590.123 1049.543,598.805 Z " fill="#FEFCFA" stroke="none" stroke-width="1"/>
  <path d="M806.000,561.813 C810.542,569.052 806.249,581.018 804.820,589.059 C804.607,590.283 804.393,591.507 804.174,592.769 C803.495,596.659 802.810,600.548 802.125,604.438 C801.229,609.540 800.335,614.643 799.445,619.746 C799.230,620.978 799.015,622.210 798.793,623.480 C797.402,631.504 796.106,639.536 794.981,647.603 C794.241,652.815 793.162,657.870 792.000,663.000 C791.650,664.997 791.308,666.996 791.000,669.000 C792.108,668.879 793.216,668.758 794.358,668.633 C798.536,668.178 802.714,667.733 806.894,667.291 C808.690,667.100 810.486,666.906 812.281,666.709 C842.064,663.452 842.064,663.452 846.356,666.884 C848.000,669.000 848.000,669.000 848.277,671.227 C845.876,688.175 845.876,688.175 840.000,693.000 C836.763,693.955 836.763,693.955 832.801,694.586 C831.700,694.763 831.700,694.763 830.576,694.943 C819.834,696.590 809.000,697.570 798.188,698.625 C796.006,698.843 793.824,699.062 791.643,699.281 C781.008,700.343 781.008,700.343 776.844,700.730 C774.814,700.923 772.785,701.132 770.758,701.351 C769.691,701.459 768.624,701.566 767.525,701.677 C766.556,701.781 765.587,701.884 764.588,701.990 C760.735,702.005 758.709,700.636 756.000,698.000 C752.961,688.883 755.574,677.461 757.940,668.397 C759.109,663.760 759.864,659.092 760.586,654.367 C760.728,653.461 760.870,652.555 761.016,651.621 C761.317,649.697 761.616,647.773 761.914,645.848 C762.687,640.862 763.471,635.878 764.258,630.895 C764.487,629.445 764.487,629.445 764.720,627.966 C765.935,620.317 767.274,612.698 768.720,605.090 C769.859,599.020 770.734,592.932 771.563,586.813 C774.189,567.860 774.189,567.860 778.141,563.801 C781.630,561.603 784.288,561.198 788.375,560.750 C790.274,560.526 790.274,560.526 792.211,560.297 C802.196,559.515 802.196,559.515 806.000,561.813 Z " fill="#FDFCFB" stroke="none" stroke-width="1"/>
  <path d="M1337.242,333.160 C1339.000,335.000 1339.000,335.000 1339.461,337.574 C1339.215,346.471 1338.266,355.191 1337.000,364.000 C1338.047,363.839 1339.093,363.678 1340.172,363.512 C1343.249,363.100 1346.154,362.837 1349.250,362.813 C1350.495,362.791 1350.495,362.791 1351.766,362.770 C1354.000,363.000 1354.000,363.000 1357.000,365.000 C1357.305,367.860 1357.418,370.456 1357.375,373.313 C1357.387,374.072 1357.398,374.832 1357.410,375.615 C1357.380,381.418 1356.336,384.680 1352.250,388.738 C1349.204,390.446 1346.456,390.759 1343.000,391.188 C1341.175,391.425 1341.175,391.425 1339.313,391.668 C1336.000,392.000 1336.000,392.000 1332.000,392.000 C1331.952,392.767 1331.903,393.535 1331.854,394.325 C1331.175,404.144 1329.824,413.806 1328.373,423.535 C1327.430,430.079 1326.564,436.387 1327.000,443.000 C1330.342,446.342 1335.424,445.441 1339.967,445.566 C1341.981,445.646 1343.992,445.816 1346.000,446.000 C1348.809,451.618 1347.467,460.289 1345.875,466.125 C1342.318,471.580 1337.213,473.776 1331.113,475.461 C1320.118,477.365 1309.974,477.055 1300.313,471.438 C1294.030,464.815 1292.603,458.611 1292.676,449.547 C1292.680,448.632 1292.684,447.717 1292.689,446.775 C1292.862,436.122 1294.393,425.701 1296.000,415.188 C1296.290,413.212 1296.580,411.236 1296.867,409.260 C1297.562,404.504 1298.276,399.751 1299.000,395.000 C1296.754,395.098 1294.508,395.195 1292.262,395.293 C1290.000,395.000 1290.000,395.000 1287.000,392.000 C1286.602,388.637 1286.602,388.637 1286.625,384.688 C1286.617,383.392 1286.610,382.096 1286.602,380.762 C1287.202,375.097 1289.004,371.996 1293.000,368.000 C1295.377,367.702 1295.377,367.702 1298.004,367.582 C1300.702,367.231 1300.702,367.231 1303.000,366.000 C1304.999,362.085 1305.408,358.016 1305.938,353.688 C1306.272,351.419 1306.614,349.152 1306.965,346.887 C1307.095,345.878 1307.225,344.870 1307.359,343.831 C1308.073,340.678 1309.099,338.607 1311.000,336.000 C1317.744,332.297 1329.960,329.392 1337.242,333.160 Z " fill="#131D2E" stroke="none" stroke-width="1"/>
  <path d="M1005.000,571.813 C1005.928,571.800 1006.856,571.788 1007.813,571.775 C1008.699,571.773 1009.586,571.772 1010.500,571.770 C1011.722,571.763 1011.722,571.763 1012.969,571.757 C1015.000,572.000 1015.000,572.000 1017.000,574.000 C1017.622,579.818 1016.178,583.563 1013.625,588.750 C1013.090,589.848 1013.090,589.848 1012.545,590.967 C1009.427,597.305 1006.110,603.540 1002.784,609.771 C999.859,615.276 997.131,620.848 994.500,626.500 C991.142,633.708 987.564,640.764 983.812,647.774 C981.572,651.970 979.400,656.187 977.320,660.465 C976.659,661.820 976.659,661.820 975.984,663.203 C975.143,664.937 974.310,666.674 973.487,668.416 C971.237,673.039 969.180,676.827 965.000,680.000 C959.501,681.841 954.082,682.425 948.313,682.813 C946.141,682.977 946.141,682.977 943.926,683.145 C939.753,682.991 938.082,682.771 935.000,680.000 C932.708,675.278 931.370,670.788 930.387,665.645 C930.111,664.231 929.836,662.816 929.552,661.360 C929.340,660.247 929.340,660.247 929.125,659.112 C928.379,655.191 927.607,651.276 926.840,647.359 C926.609,646.175 926.609,646.175 926.373,644.967 C924.910,637.482 923.351,630.019 921.750,622.563 C921.516,621.465 921.283,620.367 921.042,619.236 C919.914,613.998 918.703,608.802 917.355,603.617 C915.582,596.599 914.054,589.307 917.875,582.813 C922.131,579.183 926.596,579.391 932.000,579.000 C933.357,578.899 933.357,578.899 934.742,578.797 C935.611,578.761 936.480,578.725 937.375,578.688 C938.562,578.631 938.562,578.631 939.773,578.574 C942.948,579.181 943.962,580.518 946.000,583.000 C946.937,586.010 946.937,586.010 947.555,589.574 C947.912,591.576 947.912,591.576 948.276,593.619 C948.635,595.787 948.635,595.787 949.000,598.000 C949.259,599.522 949.518,601.043 949.778,602.565 C950.721,608.136 951.624,613.714 952.526,619.292 C952.913,621.681 953.304,624.069 953.695,626.457 C953.922,627.859 954.149,629.262 954.383,630.706 C954.819,633.867 954.819,633.867 956.000,636.000 C956.136,639.005 956.043,641.991 956.000,645.000 C956.660,645.000 957.320,645.000 958.000,645.000 C958.141,644.001 958.141,644.001 958.286,642.981 C959.195,639.186 960.774,635.811 962.430,632.297 C962.776,631.550 963.122,630.802 963.479,630.032 C964.606,627.603 965.740,625.176 966.875,622.750 C968.434,619.403 969.990,616.053 971.543,612.703 C971.928,611.873 972.313,611.043 972.710,610.188 C975.007,605.215 977.224,600.216 979.363,595.172 C980.092,593.459 980.092,593.459 980.834,591.712 C981.711,589.631 982.575,587.545 983.423,585.452 C988.092,574.410 993.644,571.820 1005.000,571.813 Z " fill="#FDFCFB" stroke="none" stroke-width="1"/>
  <path d="M821.625,407.875 C824.972,412.279 824.675,415.757 824.000,421.000 C821.652,437.155 821.652,437.155 818.000,442.000 C814.738,443.319 811.595,443.914 808.121,444.418 C798.250,445.863 792.674,448.877 785.895,456.195 C780.902,463.586 779.117,472.091 777.527,480.738 C777.318,481.822 777.109,482.906 776.893,484.023 C776.232,487.451 775.583,490.881 774.938,494.313 C774.083,498.852 773.215,503.390 772.340,507.926 C772.149,508.962 771.958,509.999 771.762,511.067 C769.644,522.029 769.644,522.029 764.668,525.738 C757.493,529.131 747.863,529.969 740.000,529.000 C736.000,527.000 736.000,527.000 735.000,525.000 C734.175,513.935 735.938,503.201 737.738,492.336 C738.023,490.569 738.308,488.801 738.591,487.034 C739.184,483.354 739.784,479.674 740.389,475.996 C741.160,471.314 741.917,466.629 742.669,461.943 C743.254,458.302 743.844,454.661 744.437,451.020 C744.718,449.294 744.997,447.568 745.275,445.842 C749.710,418.411 749.710,418.411 755.000,414.000 C759.950,412.183 764.823,411.508 770.063,411.063 C771.415,410.930 772.767,410.797 774.160,410.660 C778.970,411.086 780.726,412.532 784.000,416.000 C784.875,419.313 784.875,419.313 785.000,422.000 C785.619,421.154 786.237,420.309 786.875,419.438 C794.988,409.739 809.381,401.542 821.625,407.875 Z " fill="#131D2E" stroke="none" stroke-width="1"/>
  <path d="M904.000,399.000 C907.000,401.000 907.000,401.000 907.762,404.066 C908.030,408.503 907.573,412.585 906.813,416.938 C906.698,417.697 906.584,418.457 906.467,419.240 C905.535,424.779 903.859,429.149 901.000,434.000 C897.706,435.510 894.690,435.903 891.125,436.406 C882.279,437.733 876.377,439.935 870.457,446.828 C866.056,453.388 864.092,459.720 862.563,467.375 C862.356,468.358 862.150,469.341 861.938,470.354 C860.790,475.892 859.720,481.445 858.676,487.004 C858.458,488.160 858.240,489.317 858.015,490.508 C857.598,492.743 857.188,494.980 856.787,497.218 C854.097,511.786 854.097,511.786 849.750,516.375 C843.890,519.838 838.020,520.316 831.313,520.375 C829.844,520.403 828.376,520.432 826.863,520.461 C823.000,520.000 823.000,520.000 820.781,518.314 C817.082,513.508 818.706,506.731 819.324,500.996 C819.748,497.899 820.240,494.821 820.758,491.738 C820.941,490.600 821.125,489.462 821.314,488.290 C821.908,484.629 822.516,480.971 823.125,477.313 C823.539,474.792 823.953,472.271 824.366,469.750 C825.560,462.497 826.776,455.248 828.000,448.000 C828.166,447.016 828.331,446.032 828.502,445.018 C829.437,439.466 830.396,433.919 831.375,428.375 C831.714,426.417 831.714,426.417 832.059,424.419 C832.274,423.237 832.489,422.054 832.711,420.836 C832.889,419.841 833.068,418.847 833.251,417.822 C834.476,413.206 836.023,409.844 839.652,406.707 C843.696,404.645 847.054,404.144 851.563,403.688 C853.028,403.526 854.494,403.365 856.004,403.199 C859.349,403.032 861.830,403.013 865.000,404.000 C868.066,406.956 868.529,409.854 869.000,414.000 C869.959,412.701 869.959,412.701 870.938,411.375 C879.478,401.141 891.058,397.748 904.000,399.000 Z " fill="#131D2E" stroke="none" stroke-width="1"/>
  <path d="M1346.000,493.000 C1363.021,502.463 1373.611,530.094 1379.000,548.000 C1381.506,557.128 1383.680,566.516 1384.000,576.000 C1384.052,577.360 1384.103,578.720 1384.156,580.121 C1384.945,611.118 1376.204,642.345 1357.000,667.000 C1353.900,669.870 1352.728,670.909 1348.500,671.438 C1344.804,670.975 1342.927,670.258 1340.000,668.000 C1337.428,664.142 1337.443,662.603 1338.000,658.000 C1339.587,654.488 1341.597,651.272 1343.625,648.000 C1360.201,620.072 1365.219,588.760 1358.000,557.000 C1353.777,540.780 1346.201,525.894 1335.387,513.090 C1332.801,509.892 1331.644,507.424 1331.438,503.375 C1332.026,498.796 1332.690,497.115 1336.000,494.000 C1339.506,492.247 1342.136,492.558 1346.000,493.000 Z " fill="#FC7112" stroke="none" stroke-width="1"/>
  <path d="M1189.781,555.227 C1195.213,556.222 1198.907,558.404 1203.500,561.375 C1204.809,562.192 1204.809,562.192 1206.145,563.025 C1208.774,564.668 1211.387,566.333 1214.000,568.000 C1216.115,569.326 1218.233,570.646 1220.353,571.965 C1221.652,572.776 1222.950,573.590 1224.245,574.408 C1227.526,576.479 1230.827,578.498 1234.184,580.445 C1234.866,580.843 1235.548,581.241 1236.251,581.652 C1238.126,582.741 1240.008,583.818 1241.891,584.895 C1245.009,587.006 1246.924,588.877 1249.000,592.000 C1249.620,595.645 1249.262,597.472 1247.621,600.781 C1243.950,605.290 1239.557,607.679 1234.563,610.563 C1232.481,611.795 1230.400,613.028 1228.320,614.262 C1227.266,614.882 1226.212,615.503 1225.126,616.142 C1220.351,618.980 1215.647,621.929 1210.938,624.875 C1185.592,640.646 1185.592,640.646 1179.000,640.000 C1176.300,638.200 1174.458,636.916 1173.000,634.000 C1172.658,625.764 1173.668,617.896 1174.813,609.750 C1175.969,601.358 1177.048,592.993 1177.723,584.547 C1177.834,583.196 1177.946,581.846 1178.061,580.454 C1178.266,577.874 1178.449,575.293 1178.609,572.710 C1179.402,562.983 1179.402,562.983 1182.602,558.656 C1186.000,556.000 1186.000,556.000 1189.781,555.227 Z " fill="#FD6304" stroke="none" stroke-width="1"/>
  <path d="M891.672,583.801 C892.543,583.763 893.415,583.726 894.313,583.688 C895.113,583.650 895.914,583.613 896.738,583.574 C899.925,584.174 900.997,585.489 903.000,588.000 C903.272,590.590 903.272,590.590 902.927,593.604 C902.799,594.762 902.670,595.920 902.538,597.113 C901.510,604.540 900.381,611.942 899.164,619.340 C898.881,621.078 898.598,622.816 898.316,624.555 C897.726,628.172 897.132,631.788 896.535,635.404 C895.773,640.027 895.024,644.653 894.280,649.280 C893.701,652.859 893.114,656.437 892.524,660.015 C892.244,661.720 891.968,663.426 891.694,665.132 C891.311,667.514 890.916,669.894 890.518,672.273 C890.297,673.624 890.076,674.975 889.848,676.367 C888.670,681.414 887.266,684.911 883.313,688.313 C877.331,691.368 869.562,691.563 863.000,691.000 C859.818,688.950 859.142,687.639 858.321,683.953 C857.934,679.192 858.510,675.006 859.293,670.316 C859.512,668.929 859.512,668.929 859.736,667.514 C860.210,664.528 860.698,661.545 861.188,658.563 C861.516,656.515 861.844,654.468 862.171,652.421 C862.962,647.479 863.766,642.539 864.575,637.599 C865.152,634.071 865.720,630.541 866.289,627.012 C866.629,624.924 866.970,622.837 867.313,620.750 C867.459,619.856 867.606,618.962 867.757,618.041 C868.426,614.058 869.181,610.121 870.086,606.184 C870.761,603.095 871.199,600.435 871.313,597.313 C872.102,592.358 873.453,590.462 877.000,587.000 C881.539,583.974 886.377,584.196 891.672,583.801 Z " fill="#FDFCFB" stroke="none" stroke-width="1"/>
  <path d="M1318.000,525.000 C1331.205,534.151 1338.304,554.119 1341.394,569.198 C1342.388,575.430 1342.488,581.575 1342.438,587.875 C1342.431,589.188 1342.424,590.502 1342.417,591.855 C1342.258,601.466 1341.332,609.918 1338.000,619.000 C1337.626,620.054 1337.252,621.109 1336.867,622.195 C1333.344,631.317 1328.748,642.897 1320.000,648.000 C1315.764,648.669 1313.838,648.521 1310.188,646.250 C1308.000,644.000 1308.000,644.000 1306.000,640.000 C1306.223,633.856 1307.924,629.562 1310.813,624.188 C1319.874,606.883 1323.585,587.831 1318.500,568.500 C1315.355,559.356 1311.045,550.018 1305.281,542.250 C1302.561,538.374 1302.241,536.638 1303.000,532.000 C1306.637,525.454 1310.447,523.409 1318.000,525.000 Z " fill="#FC6E13" stroke="none" stroke-width="1"/>
  <path d="M894.938,544.688 C895.957,544.671 896.977,544.654 898.027,544.637 C902.331,545.163 904.834,546.766 907.785,549.891 C910.006,553.747 909.582,557.694 909.000,562.000 C906.816,568.882 902.957,572.408 896.750,575.750 C891.324,577.559 886.599,578.017 881.125,575.875 C877.232,572.440 876.120,569.243 875.625,564.125 C876.193,557.881 877.396,553.570 881.938,549.125 C886.440,546.001 889.517,544.708 894.938,544.688 Z " fill="#FDFBF8" stroke="none" stroke-width="1"/>
  <path d="M135.000,497.000 C138.180,498.767 139.650,500.644 141.000,504.000 C141.840,508.809 141.294,512.030 139.000,516.250 C136.100,520.330 132.879,522.788 128.000,524.000 C116.042,525.299 116.042,525.299 111.199,522.219 C108.234,519.227 107.076,516.818 106.688,512.625 C107.136,507.425 108.585,504.341 112.375,500.750 C119.361,496.093 126.807,495.841 135.000,497.000 Z " fill="#FE8412" stroke="none" stroke-width="1"/>
  <path d="M1075.000,588.000 C1078.250,589.500 1078.250,589.500 1080.000,592.000 C1080.778,596.826 1080.532,599.145 1077.938,603.313 C1072.088,608.664 1065.393,609.668 1057.813,610.688 C1056.924,610.817 1056.035,610.947 1055.119,611.080 C1051.343,611.616 1047.827,612.000 1044.000,612.000 C1046.925,602.349 1050.906,596.134 1059.000,590.000 C1064.406,587.297 1069.048,587.367 1075.000,588.000 Z " fill="#FD6B08" stroke="none" stroke-width="1"/>
</svg>